<svg width="900" height="900" viewBox="0 0 900 900" fill="none" xmlns="http://www.w3.org/2000/svg"><rect width="900" height="900" fill="#0B0807"/><circle cx="671" cy="225" r="166" fill="#F1CFBF" fill-opacity="0.11"/><path d="M317 253C317 219 345 191 379 191C413 191 441 219 441 253C441 289 379 364 379 364C379 364 317 289 317 253Z" fill="#EFC2B2" stroke="#D39B8D" stroke-width="10"/><path d="M520 326C520 292 548 264 582 264C616 264 644 292 644 326C644 362 582 437 582 437C582 437 520 362 520 326Z" fill="#F4DAD3" stroke="#D39B8D" stroke-width="10"/><path d="M379 364V564" stroke="#C78A62" stroke-width="12" stroke-linecap="round"/><path d="M582 437V637" stroke="#C78A62" stroke-width="12" stroke-linecap="round"/><circle cx="379" cy="606" r="72" fill="#F8D8CF" stroke="#D39B8D" stroke-width="16"/><circle cx="582" cy="679" r="72" fill="#EFC6BA" stroke="#C58B7E" stroke-width="16"/></svg>